<?xml version="1.0" encoding="UTF-8"?> <svg xmlns="http://www.w3.org/2000/svg" xmlns:xlink="http://www.w3.org/1999/xlink" version="1.1" id="Ebene_2" width="150" height="52" x="0px" y="0px" viewBox="0 0 150 52" style="enable-background:new 0 0 150 52;" xml:space="preserve"> <style type="text/css"> .st0{fill:#D7AB59;} </style> <g> <path class="st0" d="M14.6,46c-0.8,0-1.6-0.1-2.4-0.1c-0.9,0-1.8,0-2.7,0c0,0.9,0,1.8,0,2.6c0,0.6,0.1,1.2,0.1,1.9 c-0.3,0-0.5-0.1-0.8-0.1c-0.2,0-0.3,0-0.7,0.1c0.1-0.6,0.1-1.2,0.1-1.8c0-0.8,0-1.6,0-2.4v-2.4c0-0.4,0-0.8,0-1.3 c0-0.4-0.1-0.8-0.1-1.3c0.3,0,0.5,0.1,0.8,0.1c0.2,0,0.5,0,0.7,0c-0.1,0.7-0.1,1.4-0.1,2c0,0.6,0,1.2,0,1.8c0.9,0,1.8,0.1,2.6,0.1 c0.8,0,1.7,0,2.5,0c0-0.9,0-1.7,0-2.6c0-0.4,0-0.9-0.1-1.3c0.2,0,0.5,0,0.7,0c0.2,0,0.4,0,0.8-0.1C16,41.7,16,42.1,16,42.5 c0,0.6,0,1.3,0,1.9c0,0.9,0,1.7,0,2.6c0,0.8,0,1.5,0.1,2.3c0,0.4,0.1,0.8,0.1,1.2c-0.4-0.1-0.6-0.1-0.8-0.1c-0.3,0-0.5,0-0.7,0.1 c0.1-0.5,0.1-0.8,0.1-1.3V46z"></path> <path class="st0" d="M18.1,42.6c0.6-0.6,1.8-1.5,3.8-1.5c0.6,0,2.4,0,3.7,1.2c0.6,0.5,1.4,1.5,1.4,3.4c0,1.4-0.4,2.6-1.4,3.5 c-1.4,1.3-2.9,1.3-3.6,1.3c-1.2,0-2.3-0.2-3.2-0.9c-0.1-0.1-0.5-0.3-0.8-0.7c-0.4-0.5-1.1-1.6-1-3.3C17,44.1,17.6,43.1,18.1,42.6z M19.2,48.7c0.9,1.3,2.2,1.4,2.8,1.4c0.5,0,1.7-0.1,2.6-1.2c0.5-0.6,0.9-1.5,0.9-3.2c0-0.4,0-1.6-0.8-2.7c-0.1-0.1-0.4-0.5-0.7-0.7 c-0.5-0.4-1.1-0.5-1.3-0.5c-0.1,0-0.5-0.1-0.8-0.1c-0.4,0-1.2,0.1-2,0.7c-1.2,0.9-1.5,2.2-1.5,3.6C18.4,47.4,18.8,48.2,19.2,48.7z"></path> <path class="st0" d="M37.4,41.2c0,0.4,0.1,0.7,0.1,1.1c0.1,0.6,0.2,1.1,0.2,1.7c0.1,0.9,0.2,1.7,0.3,2.6c0.1,0.5,0.2,1.1,0.2,1.6 c0.1,0.5,0.1,0.9,0.2,1.4c0.1,0.3,0.1,0.6,0.2,0.9c-0.4-0.1-0.6-0.1-0.9-0.1c-0.2,0-0.3,0-0.7,0.1c-0.1-1-0.1-1.9-0.2-2.9 c-0.1-1.4-0.3-2.7-0.5-4.1c-0.9,1.8-1.8,3.5-2.7,5.3c-0.1,0.3-0.3,0.6-0.4,0.8c-0.1,0.3-0.2,0.6-0.3,0.8h-0.4 c-0.3-0.7-0.6-1.4-0.9-2c-0.4-0.7-0.8-1.5-1.2-2.2c-0.5-0.9-1-1.7-1.4-2.6c-0.1,0.8-0.2,1.7-0.3,2.5c-0.1,0.7-0.2,1.5-0.2,2.2 c-0.1,0.7-0.1,1.4-0.1,2.1c-0.1,0-0.3-0.1-0.6-0.1c-0.2,0-0.2,0-0.5,0.1c0.1-0.6,0.2-1.1,0.3-1.6c0.4-2.5,0.7-5.1,1.1-7.6 c0.2,0,0.2,0,0.5,0c0.2,0.4,0.3,0.7,0.5,1.1c0.3,0.5,0.6,1.1,0.9,1.6c0.4,0.8,0.9,1.6,1.3,2.4c0.4,0.7,0.8,1.4,1.2,2.1 c0.2-0.3,0.4-0.6,0.5-0.9c0.3-0.6,0.6-1.2,0.9-1.8c0.4-0.8,0.8-1.5,1.2-2.2c0.4-0.7,0.8-1.5,1.1-2.2H37.4z"></path> <path class="st0" d="M41,45.3c0.6,0,1.1,0,1.7,0c0.2,0,0.4,0,0.6,0c0.3,0,0.6-0.1,0.9-0.1c-0.1,0.4-0.1,0.5,0,0.8 c-0.2,0-0.4-0.1-0.6-0.1c-0.3,0-0.7,0-1,0c-0.2,0-0.5,0-0.7,0c-0.3,0-0.5,0-0.8,0v3.8c0.8,0,1.6,0,2.5,0c0.4,0,0.8,0,1.2-0.1 c0,0.1,0,0.2,0,0.4c0,0.1,0,0.2,0.1,0.4c-1-0.1-2-0.1-3.1-0.1c-0.7,0-1.3,0-2,0c0-0.4,0.1-0.7,0.1-1.1c0-0.3,0-0.6,0-0.9 c0-0.4,0-0.8,0-1.1c0-0.9,0-1.9,0-2.9c0-0.5,0-1,0-1.5c0-0.5,0-0.7-0.1-1.6c0.6,0,1.3,0.1,1.9,0.1c1,0,2-0.1,3-0.1 c-0.1,0.4-0.1,0.5-0.1,0.8c-0.7-0.1-1.3-0.1-2-0.1c-0.5,0-1,0-1.5,0L41,45.3z"></path> <path class="st0" d="M49.3,42.6c0.6-0.6,1.8-1.5,3.8-1.5c0.6,0,2.4,0,3.7,1.2c0.6,0.5,1.4,1.5,1.4,3.4c0,1.4-0.4,2.6-1.4,3.5 c-1.4,1.3-2.9,1.3-3.6,1.3c-1.2,0-2.3-0.2-3.2-0.9c-0.1-0.1-0.5-0.3-0.8-0.7c-0.4-0.5-1.1-1.6-1-3.3C48.1,44.1,48.8,43.1,49.3,42.6 z M50.4,48.7c0.9,1.3,2.2,1.4,2.8,1.4c0.5,0,1.7-0.1,2.6-1.2c0.5-0.6,0.9-1.5,0.9-3.2c0-0.4,0-1.6-0.8-2.7 c-0.1-0.1-0.4-0.5-0.7-0.7c-0.5-0.4-1.1-0.5-1.3-0.5c-0.1,0-0.5-0.1-0.8-0.1c-0.4,0-1.2,0.1-2,0.7c-1.2,0.9-1.5,2.2-1.5,3.6 C49.6,47.4,50,48.2,50.4,48.7z"></path> <path class="st0" d="M61.5,41.4c0.8,0,1.7,0,2.5-0.1c-0.1,0.4-0.1,0.5,0,0.8c-0.6,0-1.2-0.1-1.8-0.1c-0.5,0-1.1,0-1.6,0 c0,0.5-0.1,1-0.1,1.5c0,0.6,0,1.2,0,1.7c1.9,0.1,2.2,0,3.3-0.1c0,0-0.1,0.3-0.1,0.5c0,0,0,0.2,0,0.4c-0.5,0-1-0.1-1.4-0.1 c-0.6,0-1.2,0-1.8,0c0,1,0,2.1,0,3.1c0,0.5,0.1,0.9,0.1,1.4c-0.1,0-0.4-0.1-0.8-0.1c-0.3,0-0.4,0-0.7,0.1c0-0.4,0.1-0.8,0.1-1.2 c0-0.4,0-0.7,0-1.1c0-0.9,0-1.9,0-2.8c0-0.7,0-1.4,0-2c0-0.8,0-1.1-0.1-2C59.9,41.4,60.7,41.4,61.5,41.4z"></path> <path class="st0" d="M75.4,43c-0.2-0.2-0.4-0.5-0.6-0.6c-0.4-0.3-1.1-0.8-2.3-0.8c-0.5,0-1.4,0-2.2,0.8c-0.5,0.5-1.2,1.5-1.2,3.2 c0,0.4,0,1.7,0.7,2.8c0.4,0.6,1.2,1.5,3,1.5c0.2,0,0.6,0,1-0.1c0.9-0.2,1.3-0.6,2-1.2l0.2,0.1c-0.1,0.4-0.1,0.5-0.1,0.9 c-0.1,0-0.4,0.3-0.7,0.4c-0.4,0.2-1.4,0.5-2.6,0.5c-2.2,0-3.4-0.9-4-1.7c-0.4-0.5-0.9-1.5-0.9-3.1c0-0.4,0-1.4,0.5-2.3 c0.9-1.8,2.8-2.4,4.6-2.4c1.6,0,2.7,0.4,3.3,0.7c-0.2,0.6-0.2,0.7-0.3,1.3H75.4z"></path> <path class="st0" d="M83.3,46c-0.8,0-1.6-0.1-2.4-0.1c-0.9,0-1.8,0-2.7,0c0,0.9,0,1.8,0,2.6c0,0.6,0.1,1.2,0.1,1.9 c-0.3,0-0.5-0.1-0.8-0.1c-0.2,0-0.3,0-0.7,0.1c0.1-0.6,0.1-1.2,0.1-1.8c0-0.8,0-1.6,0-2.4v-2.4c0-0.4,0-0.8,0-1.3 c0-0.4-0.1-0.8-0.1-1.3c0.3,0,0.5,0.1,0.8,0.1c0.2,0,0.5,0,0.7,0c-0.1,0.7-0.1,1.4-0.1,2c0,0.6,0,1.2,0,1.8c0.9,0,1.8,0.1,2.6,0.1 c0.8,0,1.7,0,2.5,0c0-0.9,0-1.7,0-2.6c0-0.4,0-0.9-0.1-1.3c0.2,0,0.5,0,0.7,0c0.2,0,0.4,0,0.8-0.1c-0.1,0.4-0.1,0.8-0.1,1.2 c0,0.6,0,1.3,0,1.9c0,0.9,0,1.7,0,2.6c0,0.8,0,1.5,0.1,2.3c0,0.4,0.1,0.8,0.1,1.2c-0.4-0.1-0.6-0.1-0.8-0.1c-0.3,0-0.5,0-0.7,0.1 c0.1-0.5,0.1-0.8,0.1-1.3V46z"></path> <path class="st0" d="M86.8,42.6c0.6-0.6,1.8-1.5,3.8-1.5c0.6,0,2.4,0,3.7,1.2c0.6,0.5,1.4,1.5,1.4,3.4c0,1.4-0.4,2.6-1.4,3.5 c-1.4,1.3-2.9,1.3-3.6,1.3c-1.2,0-2.3-0.2-3.2-0.9c-0.1-0.1-0.5-0.3-0.8-0.7c-0.4-0.5-1.1-1.6-1-3.3C85.6,44.1,86.3,43.1,86.8,42.6 z M87.9,48.7c0.9,1.3,2.2,1.4,2.8,1.4c0.5,0,1.7-0.1,2.6-1.2c0.5-0.6,0.9-1.5,0.9-3.2c0-0.4,0-1.6-0.8-2.7 c-0.1-0.1-0.4-0.5-0.7-0.7c-0.5-0.4-1.1-0.5-1.3-0.5c-0.1,0-0.5-0.1-0.8-0.1c-0.4,0-1.2,0.1-2,0.7c-1.2,0.9-1.5,2.2-1.5,3.6 C87.1,47.4,87.5,48.2,87.9,48.7z"></path> <path class="st0" d="M104.2,43c-0.2-0.2-0.4-0.5-0.6-0.6c-0.4-0.3-1.1-0.8-2.3-0.8c-0.5,0-1.4,0-2.2,0.8c-0.5,0.5-1.2,1.5-1.2,3.2 c0,0.4,0,1.7,0.7,2.8c0.4,0.6,1.2,1.5,3,1.5c0.2,0,0.6,0,1-0.1c0.9-0.2,1.3-0.6,2-1.2l0.2,0.1c-0.1,0.4-0.1,0.5-0.1,0.9 c-0.1,0-0.4,0.3-0.7,0.4c-0.4,0.2-1.4,0.5-2.6,0.5c-2.2,0-3.4-0.9-4-1.7c-0.4-0.5-0.9-1.5-0.9-3.1c0-0.4,0-1.4,0.5-2.3 c0.9-1.8,2.8-2.4,4.6-2.4c1.6,0,2.7,0.4,3.3,0.7c-0.2,0.6-0.2,0.7-0.3,1.3H104.2z"></path> <path class="st0" d="M106.4,42.6c0.6-0.6,1.8-1.5,3.8-1.5c0.6,0,2.4,0,3.7,1.2c0.6,0.5,1.4,1.5,1.4,3.4c0,1.4-0.4,2.6-1.4,3.5 c-1.4,1.3-2.9,1.3-3.6,1.3c-1.2,0-2.3-0.2-3.2-0.9c-0.1-0.1-0.5-0.3-0.8-0.7c-0.4-0.5-1.1-1.6-1-3.3 C105.2,44.1,105.9,43.1,106.4,42.6z M107.5,48.7c0.9,1.3,2.2,1.4,2.8,1.4c0.5,0,1.7-0.1,2.6-1.2c0.5-0.6,0.9-1.5,0.9-3.2 c0-0.4,0-1.6-0.8-2.7c-0.1-0.1-0.4-0.5-0.7-0.7c-0.5-0.4-1.1-0.5-1.3-0.5c-0.1,0-0.5-0.1-0.8-0.1c-0.4,0-1.2,0.1-2,0.7 c-1.2,0.9-1.5,2.2-1.5,3.6C106.7,47.4,107.1,48.2,107.5,48.7z"></path> <path class="st0" d="M117.6,46.5c0,1.1,0,2.2,0,3.2c2.1,0,2.5,0,3.7-0.2c0,0.3-0.1,0.4,0,0.9c-0.9,0-1.8-0.1-2.7-0.1 c-0.8,0-1.6,0.1-2.5,0.1c0-0.4,0.1-0.8,0.1-1.1c0-0.5,0-1,0-1.6c0-0.6,0-1.3,0-1.9c0-1.5-0.1-3-0.1-4.5c0,0,0.4,0.1,0.7,0.1 c0.2,0,0.4,0,0.8-0.1c-0.1,0.6-0.1,1.1-0.1,1.7c0,0.5,0,1.1,0,1.6V46.5z"></path> <path class="st0" d="M126.3,41.2c0.1,0.4,0.3,0.7,0.4,1.1c0.2,0.4,0.4,0.9,0.6,1.3c0.3,0.6,0.5,1.2,0.8,1.9 c0.3,0.7,0.6,1.4,0.9,2.1c0.2,0.5,0.5,1.1,0.7,1.6c0.2,0.4,0.4,0.9,0.6,1.3c-0.4-0.1-0.6-0.1-0.9-0.1c-0.2,0-0.4,0-0.8,0.1 c-0.4-1.2-0.5-1.6-1.4-3.5c-0.5,0-1.1,0-1.6,0c-0.6,0-1.3,0-1.9,0.1c-0.8,1.9-0.9,2.3-1.2,3.5c-0.3-0.1-0.4-0.1-0.6-0.1 c-0.1,0-0.3,0-0.5,0c0.4-0.8,0.8-1.7,1.2-2.6c0.4-1,0.8-1.9,1.3-2.9c0.3-0.7,0.6-1.4,0.9-2.1c0.2-0.5,0.5-1,0.7-1.6L126.3,41.2z M127.1,46.3l-1.5-3.3c-0.2,0.5-0.5,1-0.7,1.5c-0.3,0.6-0.5,1.2-0.7,1.8H127.1z"></path> <path class="st0" d="M136.4,41.8c0,0.1,0,0.2,0.1,0.4c-0.5-0.1-0.7-0.1-1.5-0.1c-0.4,0-0.9,0-1.4,0c0,0.7,0,1.4,0,2.1 c0,0.8,0,1.6,0,2.4c0,0.8,0,1.6,0,2.4c0,0.5,0.1,1,0.1,1.5c-0.4-0.1-0.6-0.1-0.8-0.1c-0.2,0-0.3,0-0.7,0.1c0.1-1.5,0.1-3,0.1-4.5 c0-1.3,0-2.5,0-3.8c-0.6,0-1.1,0-1.7,0c-0.4,0-0.8,0.1-1.3,0.1c0-0.1,0-0.3,0-0.4c0-0.1,0-0.2-0.1-0.5c0.5,0,0.9,0.1,1.4,0.1 c0.5,0,1,0,1.4,0c0.6,0,1.2,0,1.9,0c0.5,0,1,0,1.4,0c0.4,0,0.8-0.1,1.1-0.1C136.5,41.3,136.4,41.6,136.4,41.8z"></path> <path class="st0" d="M138.7,45.3c0.6,0,1.1,0,1.7,0c0.2,0,0.4,0,0.6,0c0.3,0,0.6-0.1,0.9-0.1c-0.1,0.4-0.1,0.5,0,0.8 c-0.2,0-0.4-0.1-0.6-0.1c-0.3,0-0.7,0-1,0c-0.2,0-0.5,0-0.7,0c-0.3,0-0.5,0-0.8,0v3.8c0.8,0,1.6,0,2.5,0c0.4,0,0.8,0,1.2-0.1 c0,0.1,0,0.2,0,0.4c0,0.1,0,0.2,0.1,0.4c-1-0.1-2-0.1-3.1-0.1c-0.7,0-1.3,0-2,0c0-0.4,0.1-0.7,0.1-1.1c0-0.3,0-0.6,0-0.9 c0-0.4,0-0.8,0-1.1c0-0.9,0-1.9,0-2.9c0-0.5,0-1,0-1.5c0-0.5,0-0.7-0.1-1.6c0.6,0,1.3,0.1,1.9,0.1c1,0,2-0.1,3-0.1 c-0.1,0.4-0.1,0.5-0.1,0.8c-0.7-0.1-1.3-0.1-2-0.1c-0.5,0-1,0-1.5,0L138.7,45.3z"></path> </g> <g> <g> <rect x="0" y="34.8" class="st0" width="150" height="1.8"></rect> <path class="st0" d="M74.9,35.7"></path> </g> </g> <g> <path class="st0" d="M56.7,13c-1.1,1-1.5,2.4-0.8,3.1c0.6,0.7,2.1,0.4,3.2-0.6c1.1-1,1.5-2.4,0.8-3.1C59.2,11.7,57.8,11.9,56.7,13z "></path> <path class="st0" d="M104.9,6.4c-0.1,0.1-7.2,9.3-7.2,9.3h-2.4l-0.9,1l2.4,0l-6.2,7.9c-1.7,2.1-3.9,3.9-6.3,4.6 c-0.3,0.1-1,0.2-1.1-0.1c-0.1-0.1,0-0.3,0.1-0.4l5.8-7.5l11.5-14.8h-3.9l-4.6,6l-4.8,6.1l-0.6,0.7c0-0.4,0-0.7-0.3-1 c-0.8-0.8-2-0.6-3-0.5c-3.7,0.7-7.1,2.9-9.6,6c-0.4,0.5-0.8,1.3-1.3,1.8c-1.6,1.5-3,2.6-4.8,3.5c-0.4,0.1-0.9,0.5-1.2,0.3 c-0.1-0.1-0.2-0.3,0-0.5l4.8-5.6l0.8-1c0.6-1,1.1-2.4,0.4-3.5c-0.5-0.8-1.4-1.1-2.4-0.9c-2.5,0.5-4.4,2.1-6.4,3.7 c0.8-1.2,1.7-2.3,2.6-3.5h-3.9l-2.8,3.5c-1.1,1.4-2.3,2.6-3.6,3.8c-4.2,3.8-5.3,4.2-5.3,4.2s-1.1,0.6-1.4,0c-0.1-0.2,0-0.3,0.1-0.5 l8.6-10.9l-4.1,0l-4,5c-1.6,2-3.6,3.6-5.7,4.6c-2.6,1.3-6.3,1.3-9,0.1c1.4-0.5,2.7-1.2,4-2.2c2.8-2.1,4.3-4.1,6.2-7.1 c1.7-0.4,3.4-0.9,5-1.6c3.9-1.8,8.7-5.8,11-9.8c0.5-1,1.2-2.3,0.4-3.4c-0.4-0.6-1.1-0.8-1.6-0.9c-2.3-0.1-4.2,1-6,2.1 c-4.5,2.9-9.3,8.6-12.6,13c-2.6-0.1-5.2-0.4-7.3-1.7c-1.7-1-2.7-2.8-2.4-4.8c0.3-2.9,3.3-5.2,5.9-6c3.1-1.1,6.9-0.8,10,0 c0-0.2,0.1-0.6,0.1-0.6c-2.1-0.8-4.4-1.3-6.9-1.2c-4,0.2-7.9,1.3-10.3,4.8c-1.1,1.8-1.3,4.4-0.1,6.2c2.4,3.4,6.6,3.8,10.5,4 c0,0-0.9,1.1-1.3,1.7l-2.4,3c-1.1,1.4-2.4,2.8-3.9,3.9c-3.7-1.1-8.4-2.6-12.2-0.7c-0.7,0.4-1.5,1.1-1.4,2c0.2,1,1.3,1.4,2.1,1.6 c3.3,0.7,6.8,0.1,9.8-0.7c1.4,0.4,2.9,0.7,4.3,0.9c4.4,0.5,8.2-1.1,11.5-3.7c0,0-0.6,0.5-0.8,1.4c-0.2,0.9-0.1,1.4,0.4,1.9 c0.9,1,2.8,0.6,3.6,0.3l0,0c2-0.8,5-3.8,5-3.8s0.1-0.2,0.2-0.1L53,30l3.9,0c0,0,3.2-4,4.9-5.6c2.9-2.9,5.4-4.9,7.6-5.8 c0.3-0.1,0.8-0.4,1-0.1c0.2,0.3,0,0.5,0,0.5l-4.6,5.2c0,0-2.4,2.5-2.6,3.6c-0.2,0.9-0.1,1.4,0.4,1.9c0.9,1,2.8,0.6,3.6,0.3 c1.8-0.8,3.4-1.8,5-3.2c0,0.2-0.1,0.5-0.1,0.7c0,1,0.3,2,1.2,2.5c2.1,0.9,4.2-0.5,5.9-1.7c0.6-0.4,1.1-0.9,1.7-1.3 c-0.2,0.6-0.2,1.4,0.1,2c0.2,0.5,0.8,1,1.4,1.1c3,0.5,5.1-1.6,7.3-3.2l0.1,0c-0.7,1.4-0.6,2.5,0.4,3.1c1,0.6,2.4,0.3,3,0 c2.2-0.7,4.2-2.9,6.2-4.7l-0.6-0.7c0,0-2,2-3.3,3c-1.1,0.9-2.2,1.7-3.5,1.8c-0.3,0-0.5-0.1-0.6-0.3c0-0.1,0-0.3,0.1-0.5l9.4-12 l5.7,0l0.9-1.1l-5.8,0l7.1-9.2H104.9z M57.7,4.3c0.9-0.4,1.9-1.1,2.9-0.5l0.2,0.3c0.3,0.6,0,1.2-0.2,1.7c-1.8,3.5-6,7.5-9.4,9.4 c-1.9,1.2-4.6,2.1-5.3,2.2C48.7,13.2,53.2,7,57.7,4.3z M22.7,29.4c-0.7-0.2-1.6-0.2-2-1c-0.1-0.2-0.1-0.4,0.1-0.6 c0.9-0.9,2.4-0.8,3.6-0.7c1.9,0.3,3.6,0.9,5.3,1.5C27.5,29.3,25.1,29.7,22.7,29.4z M76.3,29.1c-0.6,0.2-1.1,0.5-1.7,0.3 c-0.2-0.1-0.3-0.4-0.3-0.7c0.5-1.5,1.6-2.7,2.7-3.9c2-2.2,4.2-4.2,6.6-5.7c0.6-0.2,1.5-0.8,2-0.2c0.4,0.8-0.5,1.7-0.9,2.5 C82.5,24.4,79.5,27.6,76.3,29.1z"></path> <path class="st0" d="M110.7,9.5c0.1-0.1,0.3-0.2,0.5-0.1c0.5,0.2,0.9,0.6,1.3,0.8c0.2,0.1,0.4,0.2,0.6,0.3c0.4,0.1,0.9,0,1.1-0.3 l0-0.1c0.4,0.3,0.8,0.6,1.2,0.7c0.3,0.1,0.5,0.1,0.8,0.2l0,0.2c1.3,0,1.3,1.4,1.3,1.4h0.9V13h1.7v-0.3h1c0,0,0.1-1.4,1.3-1.4l0-0.2 c0.3,0,0.5-0.1,0.7-0.2c0.5-0.2,0.9-0.4,1.2-0.7l0,0.1c0.3,0.3,0.7,0.4,1.1,0.3c0.2-0.1,0.4-0.2,0.7-0.3c0.5-0.3,0.8-0.6,1.3-0.8 c0.2,0,0.3,0,0.5,0.1c0,0,0,0.1,0.1,0.1c0-0.1,0-0.3,0-0.4c-0.1-0.5-0.5-0.9-1-1c0-0.2-0.1-0.4-0.2-0.6c-0.1-0.3-0.3-0.5-0.6-0.6 c-0.1,0.8-0.5,1.4-1.1,1.9c0-0.3,0-0.6-0.1-0.8c0-0.1-0.1-0.2-0.2-0.2c-0.4-0.2-0.8-0.2-1.2,0c-0.2,0.1-0.1,0.3-0.2,0.5 c-0.1,0.5-0.6,0.9-1,1.1c0-0.3,0.1-0.5,0.1-0.5s-1.3,0.2-2.1-0.2c0,0-0.2,1.3-1.2,1.3c-1.1,0-1.2-1.3-1.2-1.3 c-0.8,0.3-2.1,0.2-2.1,0.2s0,0.2,0.1,0.5c-0.5-0.2-0.9-0.5-1.1-1.1c-0.1-0.2-0.1-0.4-0.2-0.5c-0.4-0.2-0.8-0.1-1.2,0 c-0.1,0-0.2,0.1-0.2,0.2c-0.1,0.2,0,0.5-0.1,0.8c-0.6-0.4-1-1.1-1.1-1.9c-0.3,0.1-0.5,0.3-0.6,0.6c-0.1,0.2-0.1,0.4-0.2,0.6 c-0.5,0.1-0.9,0.5-1,1C110.6,9.3,110.6,9.5,110.7,9.5C110.6,9.6,110.7,9.5,110.7,9.5z M126.8,7.7c0.1,0.2,0.2,0.4,0.2,0.7 c0,0.1,0,0.2,0,0.3c0.1,0,0.1,0,0.2,0c0.3,0,0.6,0.1,0.7,0.3c0,0-0.1,0-0.1,0c-0.2,0-0.4,0.2-0.5,0.3c-0.4,0.3-0.8,0.7-1.3,0.9 c0-0.1-0.1-0.1-0.1-0.2c0.3-0.3,0.7-0.6,0.9-0.9c0,0,0-0.1,0-0.1c-0.2-0.1-1,0.8-1.1,0.6c0,0-0.1-0.1-0.1-0.2 C126.1,8.9,126.6,8.4,126.8,7.7z M122.7,10.5c0.4-0.1,0.8-0.2,1.1-0.5c0.1-0.1,0.2-0.2,0.2-0.3c0,0-0.1,0-0.1,0 c-0.5,0.3-0.9,0.5-1.2,0.5l0-0.3c0.7-0.2,1.2-0.6,1.5-1.2c0.1-0.1,0.1-0.3,0.2-0.4c0.1,0,0.1-0.1,0.2-0.1c0.2,0.1,0,0.5-0.1,0.7 c-0.1,0.2-0.4,0.5-0.3,0.6c0.2,0,0.3-0.1,0.4-0.2c0.2-0.3,0.3-0.6,0.5-1c0-0.1,0.2-0.1,0.2,0.1c0,0.3-0.1,0.6-0.2,0.8 c-0.4,0.9-1.3,1.4-2.3,1.5L122.7,10.5z M120.5,10.6c0,0,0.4,0.2,0.7,0c-0.2-0.1-0.5-0.5-0.5-0.9c0,0,0.4,0.2,0.8,0.1 c-0.4-0.3-0.4-0.8-0.4-0.8c0.6,0.1,1,0.1,1,0.1S122,10,122,10.9c-1,0.5-1.1,1.5-1.1,1.5h-0.6C120.4,12.4,120.4,12,120.5,10.6z M119.5,10.2c0.3,0,0.5,0.3,0.5,0.6c0,0.3-0.2,0.6-0.5,0.6c-0.3,0-0.5-0.3-0.5-0.6C119,10.5,119.2,10.2,119.5,10.2z M117.9,9.1 c0,0,0,0.5-0.4,0.8c0.5,0.2,0.8-0.1,0.8-0.1c0,0.3-0.3,0.7-0.5,0.9c0.3,0.1,0.7,0,0.7,0c0.1,1.3,0.1,1.7,0.1,1.7H118 c0,0,0.1-1-1.1-1.5c0-0.9-0.1-1.7-0.1-1.7S117.3,9.3,117.9,9.1z M114,8.2c0.1,0.4,0.2,0.7,0.5,1c0.1,0.1,0.2,0.3,0.4,0.2 c0.1-0.1-0.2-0.4-0.3-0.6c-0.1-0.2-0.3-0.7-0.1-0.7c0.1,0,0.1,0,0.2,0.1c0,0.1,0.1,0.3,0.2,0.4c0.3,0.7,0.9,1.1,1.5,1.2l0,0.3 c-0.3,0-0.6-0.2-1.2-0.5c0,0-0.1,0-0.1,0c0,0.1,0.1,0.2,0.1,0.3c0.3,0.2,0.7,0.4,1.1,0.5l0,0.2c-1-0.1-1.8-0.7-2.3-1.5 c-0.1-0.3-0.2-0.5-0.2-0.8C113.9,8.2,114,8.2,114,8.2z M111.8,8.6c0.1,0,0.1,0,0.2,0c0-0.1,0-0.2,0-0.3c0-0.2,0.1-0.5,0.2-0.7 c0.2,0.7,0.7,1.2,1.2,1.6c0,0.1,0,0.1-0.1,0.2c-0.1,0.2-1-0.7-1.1-0.6c0,0,0,0.1,0,0.1c0.2,0.4,0.7,0.6,0.9,0.9 c0,0.1,0,0.1-0.1,0.2c-0.5-0.2-0.9-0.5-1.3-0.9c-0.2-0.1-0.3-0.2-0.5-0.3c0,0-0.1,0-0.1,0C111.2,8.7,111.5,8.6,111.8,8.6z"></path> <path class="st0" d="M117,2.6c0.1,0,0.2,0,0.4-0.1c0.2,0.1,0.2,0.3,0.3,0.5l-0.1-0.1c-0.2-0.1-0.4,0-0.6-0.2c0,0.1,0,0.3,0.1,0.4 c0.1,0.4,0.5,0.4,0.8,0.6c-0.1,0-0.3,0-0.4-0.1c-0.1,0-0.2-0.1-0.2-0.1c0,0.2,0.2,0.5,0.4,0.6c0.1,0.1,0.3,0.1,0.4,0.2 c0,0,0.1,0,0.1,0.1c-0.1,0-0.3,0-0.5,0c0.2,0.5,0.7,0.7,1.1,0.9c0,0.1-0.1,0.1-0.1,0.1c-0.1,0-0.2,0.2-0.3,0.1 c-0.1,0-0.3,0.1-0.3,0.2c0,0.1-0.1,0.1,0,0.2c-0.3,0.4-0.4,0.9-0.3,1.4c0.1,0.5,0.4,0.8,0.8,1v0.3c0,0.7,0.7,1.1,1,1.1 c0.4,0,1-0.4,1-1.1V8.4c0.4-0.2,0.7-0.5,0.8-1c0.1-0.5,0-1-0.3-1.4c0-0.1,0-0.2,0-0.2c-0.1-0.1-0.2-0.2-0.3-0.2 c-0.1,0-0.2-0.1-0.3-0.1c-0.1,0-0.1-0.1-0.1-0.1c0.4-0.2,0.9-0.5,1.1-0.9c-0.1,0-0.3,0-0.5,0c0-0.1,0.1-0.1,0.1-0.1 c0.1,0,0.3-0.1,0.4-0.2c0.2-0.1,0.3-0.4,0.4-0.6c-0.1,0-0.1,0.1-0.2,0.1c-0.1,0.1-0.3,0-0.4,0.1c0.3-0.2,0.7-0.3,0.8-0.6 c0-0.1,0.1-0.2,0.1-0.4c-0.2,0.1-0.4,0.1-0.6,0.2L121.3,3c0.1-0.2,0.2-0.4,0.3-0.5c0.1,0,0.2,0.1,0.4,0.1c0.3,0,0.5-0.2,0.6-0.5 c0.1-0.4-0.1-0.9-0.4-1.1c-0.2-0.2-0.6-0.3-0.9-0.3c-0.2,0-0.4,0.1-0.4,0.1s-0.2-1.1-1.3-1.1c-1,0-1.3,1.1-1.3,1.1 s-0.2-0.1-0.4-0.1c-0.3,0-0.7,0.1-0.9,0.3c-0.3,0.3-0.5,0.7-0.4,1.1C116.5,2.3,116.8,2.5,117,2.6z M119.2,9.4 c-0.1-0.1-0.2-0.2-0.2-0.2l0-0.6l0.3,0.1l0,0C119.2,8.9,119.2,9.1,119.2,9.4z M120.4,6c0.1,0,0.1,0,0.2,0.1c0,0.1-0.2,0.1-0.2,0.2 c0.3,0.3,0.4,0.8,0.3,1.2c-0.1,0.2-0.2,0.4-0.4,0.5l-0.1,0c0.1-0.4,0.2-0.9,0.1-1.3c0-0.1-0.1-0.2-0.1-0.3c-0.1,0-0.3,0-0.4,0 c0.1,0.6,0.1,1.2,0,1.8c-0.1,0-0.2,0-0.3,0c-0.1-0.4-0.1-0.9-0.1-1.3c0-0.1,0.1-0.3,0.1-0.4c-0.1,0-0.2,0-0.3,0c0,0-0.1-0.1-0.1,0 c-0.2,0.5-0.3,1.1-0.1,1.6c-0.1,0-0.1,0-0.2-0.1c-0.3-0.2-0.4-0.6-0.4-1c0-0.3,0.1-0.5,0.3-0.8c-0.1-0.1-0.2-0.1-0.2-0.2 c0,0,0-0.1,0-0.1c0.1,0,0.2,0.1,0.3,0.1C119.3,6.2,119.9,6.2,120.4,6z M120.6,1.9c0.2-0.4,0.5-0.6,0.9-0.6c0.3,0,0.5,0.2,0.6,0.4 c0,0.1,0,0.3-0.1,0.4c0,0,0-0.1,0-0.1c-0.1-0.2-0.2-0.3-0.4-0.4c-0.3,0-0.5,0.1-0.7,0.3c-0.3,0.5-0.3,1.2-0.3,1.8 c-0.1,0.4,0,0.8-0.4,1c0.2-0.5,0.2-1.1,0.2-1.7C120.4,2.6,120.4,2.2,120.6,1.9z M118.7,0.7c0.1-0.3,0.4-0.5,0.7-0.5 c0.4,0,0.7,0.1,0.9,0.3c0.1,0.2,0.2,0.3,0.2,0.5c0.1,0.5-0.2,0.9-0.3,1.3c-0.1,0.5-0.1,0.9-0.2,1.4c0,0.3,0,0.9,0,1.2 c0,0,0,0.1-0.1,0.1c0,0-0.1,0-0.1-0.1c-0.1-0.7-0.1-1.9,0.1-2.5c0.1-0.5,0.3-0.7,0.3-1.2c0-0.3-0.1-0.6-0.4-0.7 c-0.2-0.1-0.4-0.1-0.6,0c-0.2,0.1-0.3,0.3-0.3,0.5c0,0,0,0.1,0,0.1c0.1-0.1,0.2-0.1,0.3-0.1c0.1,0,0.2,0,0.2,0.1 c0.1,0.2,0.1,0.4,0.1,0.6c0,0.5-0.1,1.1-0.2,1.6c0,0.4,0,1.2,0.1,1.6c0,0,0,0.1-0.1,0.1c-0.1,0-0.1,0-0.1-0.1 c-0.1-0.2-0.1-0.5-0.1-0.7c0-0.3,0-0.9,0-1.2c0-0.5,0.2-1,0.1-1.4c0-0.1,0-0.1-0.1-0.2c-0.1,0-0.1-0.1-0.2-0.1 c-0.1,0-0.1,0.1-0.1,0.2C118.6,1.3,118.6,1,118.7,0.7z M116.9,1.8c0.1-0.3,0.3-0.4,0.6-0.4c0.4,0,0.8,0.2,0.9,0.6 c0.2,0.3,0.2,0.8,0.2,1.2c0,0.6,0,1.2,0.2,1.7c-0.4-0.2-0.3-0.7-0.4-1c-0.1-0.6,0-1.3-0.3-1.8c-0.1-0.2-0.4-0.4-0.7-0.3 c-0.2,0-0.3,0.2-0.4,0.4c0,0,0,0.1,0,0.1C116.9,2.1,116.9,1.9,116.9,1.8z"></path> <path class="st0" d="M129.7,17c0-0.1-0.1-0.2-0.2-0.2c-0.7-1.4-0.8-2.7-0.2-4.2c0.1-0.2,0.2-0.3,0.2-0.5c0-0.1,0-0.2-0.1-0.3 c0.1-0.1,0.2-0.2,0.3-0.2c-0.2-0.2-0.6-0.1-0.7,0.1c-0.3,0.1-0.3,0.2-0.4,0.4c-1.9,0.6-3.3,1.3-4.6,2.8c-0.2-0.2-0.3-0.2-0.5-0.1 c-0.1-0.1,0-0.3,0.1-0.4c-0.5,0-0.4,1.1-0.2,1.3c-0.1,0.3-0.6,2.7-0.7,2.8c-0.3,0.4-1.3,1-1.8,1.1c-0.6-0.3,0.7-1.1,0.8-1.3 c0.1-0.1-0.2-0.2,0-0.4c0.2-0.1,0.4-0.3,0.5-0.4c0.1-0.1,0.2-0.2,0.2-0.3c-0.1-0.1-0.3-0.2-0.2-0.3c0.1-0.2,0.5-0.6,0.4-0.9 c0-0.2-0.4-0.1-0.4-0.3c0-0.3,0.2-1.1-0.1-1.3c-0.2-0.1-0.4,0.4-0.6,0.1c-0.1-0.2-0.2-1.1-0.6-1c-0.2,0-0.2,0.5-0.5,0.4 c-0.1-0.1-0.5-0.9-0.7-0.7c-0.1,0.1-0.4,0.7-0.7,0.6c-0.2-0.1-0.2-0.6-0.5-0.5c-0.2,0.1-0.4,0.3-0.6,0.4c-0.1,0.1-0.2-0.1-0.2-0.1 c-0.2-0.1-0.3,0.1-0.5,0.1c-0.4,0.2-0.6-0.1-1-0.2c-0.6-0.3-0.9-0.4-1.5-0.3c-0.5,0.1-0.7-0.4-1.3,0.4c-0.3,0-0.7,0-1-0.1 c-0.2,0-1.1-0.8-1.3,0c-0.2,0.4,0.3,0.6,0.2,1c0.1,0.2,0.3-0.1,0.6,0c0.2,0.1,0.1,0.3,0.2,0.4l0.1,0c0.3-0.3,0.6-0.2,0.7,0.1 c0.1,0.2,0.3-0.1,0.5,0c0.2,0.1,0.3,0.2,0.5,0.2c0.1,0,0.7-0.1,1-0.1c0,0,0.1,0,0.1,0.1c0,0.1-1.2,0.4-1.4,0.4 c-1.4,0.1-2.6-1.4-4-1.6c-0.1,0-0.3-0.1-0.4,0.1c1,0.3,0.3,0.9,0.3,1.2c0.3-0.1,0.5-0.1,0.8-0.1c0.6,0.1,1.7,0.5,2.4,0.7 c0,0,0.1,0.1,0.1,0.1c0,0.2-1.1-0.1-1.1,0.2c0,0.1,0.1,0.2,0.1,0.2c0.6,0.5,2.2,0.1,2.9,0.1c0.3,0,0.4,0.2,0.6,0.3 c0.5-0.6,1.1,0,1.5-0.1l0.1-0.1c0-0.1-0.1-0.2-0.1-0.4c0.2-0.6,1.2-0.2,1.5-0.1c0.1,0,0.3-0.1,0.4-0.1c0.4-0.1,1.5,0,1.2,0.6 c-0.3,0.5-1,0.3-1.3,0.5c0,0,0,0.1,0,0.2c-0.1,0.1-1.2,0.2-1.4,0.4c-0.1,0.1,0,0.1,0,0.2c-0.2,0.2-1.1,0.6-1.2,1 c0,0.1,0.1,0.1,0.1,0.1c0,0.1-0.3,0.7-0.3,1.2c0,0.1,0.3,0.1,0.4,0.2c0,0.1,0,0.1,0,0.2l-0.6,0c-0.5,0-1,0.1-1.4,0.2 c-0.2,0-0.4,0.1-0.6,0.2l-0.1,0c-0.2,0-0.9-0.3-1.2-0.3c-0.2-0.1-0.2-0.3-0.3-0.5c0.1-0.1,0.1-0.2,0.1-0.4c0.3-0.1,0.4-0.5,0.2-0.7 c0,0,0-0.1-0.1,0c0,0.2,0,0.3-0.2,0.3c-0.3-0.4-0.7,0-0.8,0.4c0-0.1-0.1-0.3-0.1-0.4c0-0.2,0.1-0.5-0.1-0.6c-0.1-0.1-0.2-0.1-0.3,0 c0.1,0.1,0.2,0.2,0.1,0.4c-0.6,0.1-0.7,0.6-0.2,1c0.1,0.1,0.1,0.3,0.2,0.5c-0.1,0-0.2,0-0.3,0c-0.4-0.2-0.8,0.3-0.6,0.3 c0.1,0,0.2-0.1,0.3,0c-0.1,0.6,0.5,0.8,1,0.5c0.1,0,0.2,0,0.3,0.1c0.2,0.5-0.5,0.6-0.1,1.1c0.4,0.5,0.9-0.2,0.9,0.5 c0.5-0.4-0.3-0.5,0-1.4c0.3-0.2,0.7,0.4,0.8,0.6c1.1,0,0.5,0.3,0.6,0.7c0.2,0,0.9,0,1,0.2c0.1,0.2,0.1,0.4,0.2,0.6l0.1,0 c0.1-0.1,0.6-0.6,0.7-0.3c0.1,0.1,0.8,0.3,0.7,0.5c-0.5,1-0.2,2.4-0.2,3.5c0,0.2-0.3,1-0.5,1.1c-0.7,0.4-0.9-0.7-1-0.9 c-0.1-0.1-0.5-0.2-0.5-0.1c0.1,0.1,0.3,0.2,0.2,0.4c-0.4,0.1-0.3,0.6-0.2,0.8c-0.1,0-0.2,0-0.4,0c-0.3-0.2-0.6-0.2-0.7,0.2 c0.1-0.1,0.3-0.1,0.4,0c-0.1,1.3,0.8,0.3,1.2,0.6c-0.1,0.1-0.1,0.2-0.2,0.3c-0.2,0.3-0.4,0.4,0,0.7c0-0.2,0-0.3,0.2-0.4 c0.3,0.4,0.8,0,0.9-0.4c1.1-0.6,0.4,0.2,1,0.5c0.7,0.2,0.7-0.8,1.2-0.2c0,0,0-0.1,0.1-0.2c0-0.3-0.4-0.3-0.6-0.3 c-0.1-0.1-0.3-0.1-0.4-0.2c-0.4-0.2,0.1-1.3,0.5-1.3c0-0.2,0-0.7,0.3-0.5c0.1,0,0.1,0.2,0.2,0.1c0.1-0.4,0.2-1,0.7-0.5l0.1,0 c0.2-2.1,0.6-1.8,0.9,0c0.2,0,0.3,0,0.3,0.2c0,0.2,0.1,0.8,0.2,1c0.1,0,0.2,0,0.2,0c0.1,0.2,0.5,1,0.7,1.1c0.1,0.1,0.2-0.1,0.3-0.1 c0.2,0.2,0.9,0.7,1.2,0.8c0.1-0.1,0.1-0.2,0.2-0.2c0.4,0.2,1,0.4,1.4,0.4c0.1,0,0.1-0.1,0.2-0.2c0.3,0,1,0,1.4-0.1 c0.2-0.1,0.1-0.3,0.2-0.3c0.3-0.1,0.7-0.2,0.9-0.4c0,0,0.1-0.5,0.5-0.7c0.3,0.1,0.8,0.3,0.6,0.8c0-0.4-0.5-0.4-0.6-0.2 c-0.1,0.2,0.2,0.3,0.2,0.5c0.1,0.3-0.3,0.5-0.5,0.7c0,0.1,0.1,0.1,0.1,0.1c1.7,0.4,2-1.4,2.4-1.4c0,0,0.1,0,0.1,0 c0-0.1-0.3-0.3-0.4-0.4c-0.3,0-0.4,0.3-0.5,0.3c0-0.7-0.5-1-1-1.3c0.1-0.3,0.3-0.4,0.4-0.6c0.1-0.2-0.2-0.3-0.2-0.5 c-0.1-0.2,0.2-0.7,0.2-0.9c0-0.2-0.2-0.1-0.3-0.2c-0.3-0.1-0.2-0.6-0.2-0.9c-0.1-0.3-0.4-0.1-0.6-0.2c-0.3-0.1-0.3-0.4-0.5-0.6 c-0.2-0.1-0.3,0-0.4,0.1c-0.2,0.1-0.5-0.1-0.7-0.1c-0.2,0-0.3,0.1-0.4,0.2c-0.2,0.2-0.5,0.1-0.6,0.3c-0.1,0.1-0.1,0.3-0.1,0.4 c-0.1,0.1-0.3,0.2-0.4,0.4c-0.1,0.2,0.1,0.5,0,0.7c0,0.2,0,0.4,0,0.6c0,0.3,0.2,0.4,0.3,0.6c0.1,0.3,0.4,0.5,0.7,0.7 c0.1,0.2,0.3,0.3,0.5,0.4c-0.3,0.2-0.7,0.2-1,0.1c-0.1-0.3-0.7-0.1-0.9-0.4c0-0.1,0-0.2,0-0.3c-0.1-0.1-0.5-0.5-0.5-0.6 c0-0.1,0.2-0.3,0.2-0.5c-0.2-0.2-0.4-0.4-0.5-0.7c0.2-0.2,0.4-0.3,0.5-0.5c-0.1-0.4-0.5-0.6-0.6-1.1c0.2-0.1,0.4-0.2,0.5-0.4 c0.1-0.1,0.2-0.2,0.2-0.3c-0.2-0.2-1-0.8-0.9-1.1c0.3-0.2,1.3,0.3,1.6,0.5c0.1,0.1,0.2,0.3,0.3,0.2c0.2-0.2,0.4-0.5,0.8-0.8 c0.5-0.4,1.3-0.6,2-0.5c0.2,0.2,0.2,0.8,0.8,0.4c0.1,0.1,0.1,0.3,0.1,0.5c0.2-0.2,0.2-0.6,0.1-0.8c0-0.2-0.1-0.3-0.2-0.5 c-0.3-0.8,0.5-2.8,1.1-3.5c0,0,0.1-0.1,0.2-0.1c0.4,0.1,0.4,0.1,0.7-0.1c0.1,0.1,0.2,0.2,0.2,0.3C130.1,17.4,129.9,17.1,129.7,17z M116.4,14.9c-0.3,0.3-0.6,0.2,0,0.5l0,0.1c-0.2,0.2-0.6-0.1-0.8,0.1c-0.1,0.1,0.2,0.4-0.1,0.4c-0.3,0-0.5-0.5-0.8-0.1 c-0.2,0.2-2.6,0.6-2.9,0.4c0.1-0.1,0.2-0.1,0.3-0.1c0.9,0,1.5-0.4,2.3-0.6c0.3,0,0.6-0.1,0.9-0.2c0.1,0,0.4-0.2,0.4-0.3 c0-0.1,0-0.1-0.1-0.1c-0.2-0.1-1.1-0.1-1.6-0.3c-0.1-0.1-0.5-0.2-0.6-0.2c-0.1,0-0.3,0.1-0.4,0c-0.1-0.1-0.1-0.2-0.3-0.2 c-0.3,0-0.3-0.1-0.5-0.2c-0.1-0.1-0.4,0-0.5,0c-0.1,0,0-0.2-0.1-0.2c-0.1,0-0.1,0-0.2,0c-0.1,0-0.2,0.1-0.2,0.2l-0.1,0 c-0.2-0.2,0-0.4,0.2-0.5c0.3,0,0.6,0.3,0.8,0.3c0.2,0.1,1.1,0.2,1.2,0.2c0.2,0,0.6-0.5,1.2-0.4c0.3,0.1,1.4,1,1.6,0.5 C116.7,14.3,116.7,14.7,116.4,14.9z M116.7,15.3c0-0.4,0.5,0,0.6,0.1C117.6,15.8,116.8,15.7,116.7,15.3z M118,15.4 c-0.1,0.2-0.8-0.6-0.7-0.8l0.1,0C117.5,14.7,118.1,15.2,118,15.4z M118.7,15.6l-0.1,0c-0.1-0.1,0-0.3-0.1-0.4 c-0.1-0.3-0.4-0.7-0.7-0.9C118.7,14.4,119.2,15.1,118.7,15.6z M110.6,19.4c0.1,0,0,0.4,0,0.5C110.2,20.2,110.3,19.4,110.6,19.4z M110.1,21.1c0-0.3,0.5,0,0.5,0.1C110.6,21.5,110.1,21.3,110.1,21.1z M125.4,28.2c0-0.1,0.1,0,0.2,0c0.2,0.1,0.7,0.2,0.8,0.3 C126.2,28.8,125.5,28.4,125.4,28.2z M125.3,27.2L125.3,27.2c0.2,0.2,0.5,0.5,0.7,0.6l0,0.1C125.7,28,125.3,27.6,125.3,27.2z M127.8,28.4c0.3,0.2,0.4,0.5,0.3,0.8c0,0.1-0.1,0.2,0,0.2h0.1c-0.1,0.1-0.2,0.2-0.4,0.3c0-0.4,0.3-0.7,0-1 c-0.3-0.5-1.6-0.8-1.6-1.2c0.1,0,0.1,0,0.2,0.1C126.8,28,127.3,28.1,127.8,28.4z M127.5,27c-0.1,0.2-0.3,0.4-0.5,0.5 c-0.1,0-0.2-0.1-0.3-0.1C126.9,27.4,127.4,27,127.5,27z M127.2,26.1c0,0,0.1-0.2,0.2-0.1c-0.1,0.4-0.4,1.2-0.9,1.3 c0,0-0.1,0-0.2-0.1c0,0,0-0.1,0-0.1C126.8,26.9,127,26.5,127.2,26.1z M126.7,26c0.1-0.3,0.1-0.7,0.2-0.9c0,0,0.1-0.1,0.1-0.1 c0,0.4,0,1.1-0.4,1.4l-0.1,0C126.6,26.3,126.6,26.1,126.7,26z M126.4,25.5c0-0.4-0.2-0.8-0.3-1.2C126.4,24.3,126.7,25.4,126.4,25.5 z M125.9,27c-0.6-0.2-1.5-1.1-0.8-1.6C125.7,24.9,126.6,26,125.9,27z M125.8,25.1c-0.1-0.1-0.1-0.2-0.2-0.3 c-0.1-0.3-0.4-0.4-0.6-0.6C125.2,24,125.9,24.4,125.8,25.1z M125.2,25.1c-0.4-0.3-0.5-0.4-1-0.3C124.2,24.6,125,24.3,125.2,25.1z M124.4,27c-0.5-0.4-0.2-1.1,0.1-1.1C124.2,26.5,124.4,26.6,124.4,27z M123.8,26c-0.3-0.5,0.5-1.1,0.9-0.7 C124.1,25.5,124.2,25.6,123.8,26z M124.7,26.6c0.1,0.4,0.2,0.6,0.4,0.8C124.4,27.7,124.6,26.2,124.7,26.6z M124.8,28.4 c0,0,0.1,0,0.1,0c0.3,0.2,0.3,0.5,1,0.8C125.6,29.7,124.5,28.7,124.8,28.4z M123.9,28.5l0.1-0.1c0.1,0,0.1,0.1,0.1,0.1 c0.2,0.4,0.5,0.8,0.9,1.1C124.5,29.8,123.8,29.1,123.9,28.5z M123,28c0.1,0,0.1,0.1,0.1,0.1c0.1,0.5,0.2,1,0.5,1.5l-0.1,0.1 C122.9,29.8,122.5,28,123,28z M122.9,19.1c0.3-0.2,0.7-2.8,0.9-3.4c-0.5-0.4-0.2-1.1,0.2-0.4c1.4-1.6,2.8-2.4,4.8-3 c0-0.1,0.1-0.3,0.2-0.3l0.1,0c0.2,0.3-0.2,0.5-0.4,0.6c-1.8,0.5-3.3,1.5-4.4,3c-0.2,0.3-0.3,0.7-0.4,1c-0.1,0.4-0.4,2.4-0.8,2.7 c-0.4,0.3-1.1,0.8-1.6,0.9c-0.1,0-0.2,0.1-0.2,0.1l0-0.1C121.8,19.7,122.4,19.5,122.9,19.1z M123.3,21.2c-0.6,0.2-0.6-0.9-0.4-1.1 c0,0,0.1-0.1,0.2,0C123.2,20.3,123.1,20.8,123.3,21.2z M122.4,21l-0.1,0.1c-0.6-0.1-0.1-1.1,0.1-0.7 C122.4,20.6,122.4,20.9,122.4,21z M119.2,15.7c0.1-0.5,0.5-0.8-0.2-1.5C120.2,14.4,119.9,15.9,119.2,15.7z M119.7,16.2 c0-0.1,0.2-0.2,0.2-0.3c0.4-0.4,0.4-0.9,0.2-1.4c0.4,0.2,0.7,0.5,0.6,0.9C120.7,15.7,119.9,16.5,119.7,16.2z M111.6,19.6 c0.1,0,0.1,0.6-0.3,0.4C111.3,19.9,111.4,19.5,111.6,19.6z M111.3,22.1l0.1,0c0,0.2,0.1,0.3,0.2,0.5 C111.3,22.8,111,22.2,111.3,22.1z M115.5,21.8c-0.2,0-0.6,0.3-0.8,0.4l-0.1,0c0-0.2,0.2-0.3,0.3-0.5l0-0.1c-0.6-0.2-1,0.5-1.6,0.6 c0,0-0.1,0-0.1,0c0-0.1,0.2-0.2,0.2-0.3c-0.7-0.3-1.2-0.7-2-0.4c0-0.1,0.1-0.2,0.1-0.2c0-0.3-0.4-0.2-0.5-0.2 c0-0.1,0.1-0.1,0.1-0.2c-0.1-0.1-0.1-0.2-0.1-0.3c0.3,0.1,0.6,0.4,0.9,0.6c0.4,0.2,1.1,0.4,1.5,0.5c0.2,0,0.7-0.1,0.9-0.2 c0.6-0.1,1.1-0.2,1.7-0.2c0,0.2,0,0.4,0,0.5c0.1,0,0.1,0,0.2,0c0.1,0.3,0.1,0.6,0.1,0.9C115.9,22.7,116,21.8,115.5,21.8z M113.3,29.4l0-0.1c0.1,0,0.4,0.1,0.5,0.1l0,0.1C113.7,29.6,113.4,29.6,113.3,29.4z M114.2,28.5c0,0.1,0.1,0.2,0.1,0.3 C113.8,29,113.9,27.9,114.2,28.5z M114.4,30.2c0,0,0.5-0.3,0.5-0.1C114.8,30.5,114.3,30.3,114.4,30.2z M116.6,30.1 c0,0.3-0.6,0.1-0.5-0.2C116.2,29.9,116.6,30.1,116.6,30.1z M118.9,24.6c-0.2-0.1-0.1-1.4-0.1-1.6l0-0.1c-0.2,0-0.4,0.6-0.4,0.8 c-0.2-0.1-0.2-0.8-0.3-1.1l-0.1-0.1c-0.4,0.2-0.1,1.6-0.3,1.9c-0.1,0-0.1-0.2-0.2-0.1c-0.1,0-0.2,0.2-0.2,0.3 c-0.1,0.4,0.1,0.8,0,1.2c0,0,0,0.1-0.1,0.1c-0.1,0-0.2-0.4-0.4-0.5c0,0-0.1,0-0.1,0c-0.2,0.2-0.1,0.8-0.1,1.1l-0.1,0.1 c-0.1,0-0.1-0.2-0.2-0.1c-0.1,0-0.1,0.3-0.1,0.4c0,0.4,0,0.7-0.1,1.1c0,0.1-0.4,0.7-0.4,0.8c-0.1,0.2,0.1,0.5,0,0.7 c-0.2,0.1-0.2-0.1-0.3-0.2c-0.2-0.1-0.8,0.3-1,0.3c-0.1-0.1,0.2-0.2,0-0.3c-0.2-0.1-0.3-0.1-0.5-0.1l0-0.1c0.4,0.1,1,0.2,1.4-0.1 c0.1-0.1,0.6-1.1,0.6-1.2c0.1-0.3,0-0.7,0.1-1.1c0.1-0.9,0.2-1.7,0.4-2.5c0.1-0.4,0.3-0.8,0.4-1.2c0.1-0.4,0-0.8,0.1-1.2l0.2-0.7 l-0.1-0.1c-0.2,0-0.3,0.4-0.4,0.5c-0.2-0.1,0.1-1.1,0.1-1.3l-0.1,0c-0.2,0.2-0.3,0.4-0.4,0.6c-0.3-0.6,0.1-0.9,0.1-1.4 c-0.1,0-0.2,0-0.2,0.1c0.4-2.1,4.6-1.7,4.9-4c0-0.2,0-0.4,0-0.6c0.2,0.2,0.3,0.4,0.3,0.6c0.2,1.3-2.7,2.3-2.7,2.3 c0.8-0.1,2.1-0.3,2.7-0.9c0.1,0.8-3.5,1.2-3.8,1.7c0.7-0.1,1.3-0.1,2-0.2c-0.7,0.4-1.5,0.3-2.2,1l0,0.1c0.1,0,0.2-0.1,0.4-0.1 c0.5-0.1,1-0.2,1.5-0.2c-0.6,0.3-1.3,0.5-1.7,1l0,0.1h0.1c0.3-0.2,1.4-0.5,1.7-0.3c-0.6,0.2-1.1,0.5-1.5,1c0,0.1,0.1,0.1,0.1,0.1 c0.6-0.3,1.1-0.5,1.8-0.4c-0.1,0.2-1.7,0.9-1.5,1.2c0,0,0.1,0,0.1,0c0.5-0.3,1.3-0.7,1.9-0.5l0,0.1c-0.4,0.2-1.3,0.6-1.4,1.1 c0.4,0,1.4-0.8,1.9-0.4c0,0,0,0.1-0.1,0.1c-0.1,0.1-0.3,0.1-0.4,0.2c-0.5,0.3-1.1,0.8-1.3,1.4C119.1,24.1,119,24.3,118.9,24.6z M119.4,25.7L119.4,25.7c-0.2,0-0.2-0.1-0.2-0.2c-0.1-1,0.2-1.9,1.1-2.4c0.3-0.2,0.8-0.4,1.1-0.2C120.3,23.8,119.9,24.1,119.4,25.7 z M119.9,26.8L119.9,26.8c-0.2,0-0.2-0.1-0.2-0.2c-0.1-1,0.2-1.9,1.1-2.4c0.3-0.2,0.8-0.4,1.1-0.2 C120.7,24.9,120.3,25.2,119.9,26.8z M122.5,27.4c0.3,0-0.1,0.5-0.1,0.6c-0.1,0.4-0.1,0.8,0.1,1.2C121.7,29.3,121.4,27.5,122.5,27.4 z M121.3,28.5c-0.7-0.7-0.1-1.9,0.7-2.1c0.1,0,0.2-0.1,0.3,0C121.7,27.1,121.3,27.6,121.3,28.5z M122.2,25 c-0.8,0.6-1.5,1.3-1.7,2.3c0,0.2-0.1,0.4-0.1,0.6l-0.1,0C120.1,26.9,120.7,24.9,122.2,25z M124.1,22.2 C124.1,22.2,124.1,22.2,124.1,22.2c-0.1,0-0.3-0.1-0.4-0.1c-0.5-0.2-0.9-0.3-1.4-0.3c-0.1,0-0.3,0-0.4,0l0-0.1 c0.4-0.3,1.6,0.1,1.7-0.1c0.1-0.1-0.2-1.7,0.1-2.2l0.1,0c0.1,0.4,0.1,0.8,0.1,1.2c0,0.2,0.1,1.2,0.3,1.1c0.2-0.1,0-2.5,0.2-3 c0-0.1,0.1-0.2,0.2-0.2c0,0.4,0.1,2.5,0.4,2.6c0.1,0,0.1,0,0.1-0.1c0.1-0.3-0.1-1.9,0.2-2.1l0.1,0.1c0,0.5,0,1.7,0.2,2l0.1,0 c0.1-0.1,0.1-0.8,0.2-1l0.1,0c0,0.1,0,0.7,0.1,0.8c0.1,0.4,0.3-0.2,0.4-0.2c0.1,0.1,0.2,0.3,0.2,0.5 C125.4,21.3,125.1,21.4,124.1,22.2z M128.4,17.7c-0.4,0.8-0.9,1.5-1,2.4c0,0.2-0.1,0.9,0,1.1c0.1,0.1,0.2,0.2,0.1,0.4 c0,0.1-0.1,0.1-0.2,0.1c-0.2,0-0.2-0.3-0.2-0.5c-0.3-0.9-0.8-1.7-1.3-2.5c-0.2-0.3-1.1-1.7-1.1-1.9c0-0.1,0.2-0.7,0.4-0.5 c0,0.2-0.1,0.6-0.1,0.7c0.2,0.5,0.6-0.7,0.8-0.6c0,0,0,0.1,0,0.1c-0.1,0.4-0.4,0.7-0.3,1.1c0.2,0.4,0.5-0.9,0.9-1 c0,0.4-0.5,1-0.5,1.6l0.1,0.1c0.1,0,0.7-1.4,1.1-1.5c0,0.5-0.9,1.7-0.7,2.1c0.1,0.1,0.1,0,0.2-0.1c0.2-0.5,0.7-1.4,1.1-1.7 c0,0,0.1,0.1,0.1,0.1c-0.3,0.7-0.8,1.3-0.9,2.1c0,0.1,0,0.2,0.1,0.2c0.3-0.4,0.5-1.4,1.1-2c0,0,0.2-0.1,0.2-0.1 C128.4,17.5,128.4,17.6,128.4,17.7z M129.3,17.3c-0.2,0-0.3-0.2-0.4-0.2c-0.7-0.5-1.5-0.9-2.4-1.1c-0.2-0.1-1.1-0.2-1.2-0.3 c0-0.2,0.3,0,0.3-0.2c0-0.1,0-0.2,0.1-0.4l0.1,0c0.1,0.1,0.1,0.3,0.2,0.4c0,0.1,0.1,0.1,0.2,0.2c0.3,0,0-0.9,0.2-1 c0.1,0.2,0.2,0.9,0.4,1c0.4,0.3-0.1-1.4,0.3-1.4l0.1,0.1c0,0.3,0.1,1.6,0.4,1.7l0.1-0.1c0-0.2-0.2-2,0.2-2c0,0,0,1.2,0.1,1.4 c0,0.2,0.1,0.7,0.3,0.9c0.1,0.1,0.2,0,0.2-0.1c0-0.8-0.2-1.6,0.1-2.4c0-0.1,0.1-0.2,0.2-0.2l0.1,0.1c-0.2,1.2-0.1,2.2,0.5,3.3 C129.2,16.9,129.7,17.2,129.3,17.3z"></path> <path class="st0" d="M115.9,14.7c-0.6-0.4-1.2-0.8-1.9-0.4l0,0.1c0.1,0.1,0.2,0.2,0.3,0.3c0.3,0.3,1.6,0.4,1.9,0.1l0-0.1 L115.9,14.7z M114.5,14.7c-0.1,0-0.3-0.2-0.4-0.3c0.1,0,0.3-0.1,0.5-0.1C114.5,14.4,114.5,14.6,114.5,14.7z M115.1,14.8 c0.1,0,0.1-0.2,0.1-0.3c0.1,0,0.2,0.1,0.4,0.2C115.4,14.8,115.2,14.8,115.1,14.8z"></path> </g> </svg> 